<svg xmlns="http://www.w3.org/2000/svg" viewBox="0 0 800 400"><rect width="800" height="400" fill="#0D1117"/><path fill="url(#grad)" d="M0 0 L800 0 L800 400 L0 400 Z"/><defs><linearGradient id="grad" x1="0%" x2="100%" y1="0%" y2="100%"><stop offset="0%" style="stop-color:#0d1117;stop-opacity:1"/><stop offset="100%" style="stop-color:#1f2937;stop-opacity:1"/></linearGradient><filter id="glow"><feGaussianBlur result="coloredBlur" stdDeviation="2"/><feMerge><feMergeNode in="coloredBlur"/><feMergeNode in="SourceGraphic"/></feMerge></filter></defs><text x="400" y="80" fill="#fff" font-family="Arial" font-size="40" font-weight="bold" text-anchor="middle">Modern DevOps Pipeline</text><text x="400" y="115" fill="#8B949E" font-family="Arial" font-size="20" text-anchor="middle">Continuous Deployment with GitOps</text><g transform="translate(150, 200) scale(0.8)"><circle cx="0" cy="0" r="40" fill="#F05133"/><path stroke="#fff" stroke-linecap="round" stroke-width="8" d="M-15,-15 L15,15 M-15,15 L15,-15"/></g><g transform="translate(300, 200)"><circle cx="0" cy="0" r="35" fill="#EE7600"/><path fill="none" stroke="#fff" stroke-width="4" d="M-20,-5 Q0,-25 20,-5 Q0,15 -20,-5"/></g><g><path fill="#0078D4" d="M-30,20 L-10,-20 L30,20 L-30,20 M0,-10 L20,15 L40,-15 L0,-10" filter="url(#glow)" transform="translate(450, 200)"/></g><g transform="translate(600, 200)"><circle cx="0" cy="0" r="35" fill="none" stroke="#326CE5" stroke-width="4"/><path fill="none" stroke="#326CE5" stroke-width="4" d="M0,-35 L30,17.5 L-30,17.5 Z"/></g><g transform="translate(750, 200)"><circle cx="0" cy="0" r="35" fill="#F46800"/><path fill="none" stroke="#fff" stroke-width="3" d="M-15,-15 Q0,-5 15,-15 M-20,0 Q0,10 20,0 M-15,15 Q0,25 15,15"/></g><g stroke="#4A5568" stroke-dasharray="5 5" stroke-width="2"><path d="M190,200 L260,200"/><path d="M335,200 L415,200"/><path d="M485,200 L565,200"/><path d="M635,200 L715,200"/></g><g fill="#8B949E" font-family="Arial" font-size="14" text-anchor="middle"><text x="150" y="260">Git</text><text x="300" y="260">Argo CD</text><text x="450" y="260">Azure</text><text x="600" y="260">Kubernetes</text><text x="750" y="260">Grafana</text></g><path fill="none" stroke="#4A5568" stroke-width="2" d="M100,300 Q400,320 700,300"/><g fill="#4A5568"><circle cx="100" cy="300" r="3"/><circle cx="400" cy="310" r="3"/><circle cx="700" cy="300" r="3"/></g><g fill="#fff" opacity=".1"><circle cx="50" cy="50" r="2"/><circle cx="750" cy="350" r="2"/><circle cx="750" cy="50" r="2"/><circle cx="50" cy="350" r="2"/></g></svg>